# xmcd CD database file
#
# Track frame offsets:
#	150
#	18037
#	36113
#	55520
#	69462
#	87078
#	101609
#	117452
#	132414
#	150015
#	168112
#	183685
#	197706
#	215326
#	232138
#	245242
#
# Disc length: 3456 seconds
#
# Revision: 0
# Processed by: cddbd v1.5.2PL0 Copyright (c) Steve Scherf et al.
# Submitted via: CDex 1.51
#
DISCID=d20d7e10
DTITLE=Keith Urban - Fuse(Deluxe Edition)
DYEAR=2014
DGENRE=Country
TTITLE0=Somewhere in My Car
TTITLE1=Even the Stars Fall 4 U
TTITLE2=Cop Car
TTITLE3=Shame
TTITLE4=Good Thing
TTITLE5=We Were Us
TTITLE6=Love's Poster Child
TTITLE7=She's My 11
TTITLE8=Come Back to Me
TTITLE9=Red Camaro
TTITLE10=Little Bit of Everything
TTITLE11=Raise 'Em Up (feat. Eric Church)
TTITLE12=Heart Like Mine
TTITLE13=Black Leather Jacket
TTITLE14=Gonna B Good
TTITLE15=Lucky Charm
EXTD=YEAR: 2014
EXTT0=
EXTT1=
EXTT2=
EXTT3=
EXTT4=
EXTT5=
EXTT6=
EXTT7=
EXTT8=
EXTT9=
EXTT10=
EXTT11=
EXTT12=
EXTT13=
EXTT14=
EXTT15=
PLAYORDER=
